<svg xmlns="http://www.w3.org/2000/svg" viewBox="0 0 512 512" width="512" height="512">
  <defs>
    <linearGradient id="grad" x1="0%" y1="0%" x2="100%" y2="100%">
      <stop offset="0%" stop-color="#059669" />
      <stop offset="100%" stop-color="#047857" />
    </linearGradient>
    <linearGradient id="gold" x1="0%" y1="0%" x2="100%" y2="100%">
      <stop offset="0%" stop-color="#fbbf24" />
      <stop offset="100%" stop-color="#f59e0b" />
    </linearGradient>
  </defs>
  <rect width="512" height="512" rx="112" fill="url(#grad)" />
  <!-- Book base -->
  <path d="M128 352c28-16 64-24 104-24 32 0 64 6 96 16v-192c-32-10-64-16-96-16-40 0-76 8-104 24v192z" fill="#ffffff" opacity="0.95" />
  <path d="M384 352c-28-16-64-24-104-24-32 0-64 6-96 16v-192c32-10 64-16 96-16 40 0 76 8 104 24v192z" fill="#ffffff" opacity="0.85" />
  <!-- Graduation cap / Star -->
  <polygon points="256,120 278,168 330,174 291,208 302,260 256,233 210,260 221,208 182,174 234,168" fill="url(#gold)" />
  <!-- Text GVCN -->
  <text x="256" y="420" font-family="system-ui, -apple-system, sans-serif" font-size="52" font-weight="900" fill="#ffffff" text-anchor="middle" letter-spacing="4">GVCN PRO</text>
</svg>
